<mxfile host="app.diagrams.net" modified="2021-11-11T07:07:04.682Z" agent="5.0 (Macintosh; Intel Mac OS X 11_2_1) AppleWebKit/537.36 (KHTML, like Gecko) Chrome/89.0.4389.90 Safari/537.36" etag="dK-xmls0ey9PGDf2Y_Z6" version="15.7.0" type="github">
  <diagram id="4Hc1g-TmQJhh01kLop18" name="Page-1">
    <mxGraphModel dx="1232" dy="809" grid="1" gridSize="10" guides="1" tooltips="1" connect="1" arrows="1" fold="1" page="1" pageScale="1" pageWidth="827" pageHeight="1169" background="#F4F1DE" math="0" shadow="0">
      <root>
        <mxCell id="0" />
        <mxCell id="1" parent="0" />
        <mxCell id="xy5MojFmsQYjVZAAaJ2E-5" value="N" style="edgeStyle=orthogonalEdgeStyle;rounded=0;orthogonalLoop=1;jettySize=auto;html=1;labelBackgroundColor=#F4F1DE;strokeColor=#E07A5F;fontColor=#393C56;" edge="1" parent="1" source="xy5MojFmsQYjVZAAaJ2E-1" target="xy5MojFmsQYjVZAAaJ2E-4">
          <mxGeometry relative="1" as="geometry" />
        </mxCell>
        <mxCell id="xy5MojFmsQYjVZAAaJ2E-6" value="Y" style="edgeStyle=orthogonalEdgeStyle;rounded=0;orthogonalLoop=1;jettySize=auto;html=1;exitX=0;exitY=0.5;exitDx=0;exitDy=0;labelBackgroundColor=#F4F1DE;strokeColor=#E07A5F;fontColor=#393C56;" edge="1" parent="1" source="xy5MojFmsQYjVZAAaJ2E-1" target="xy5MojFmsQYjVZAAaJ2E-2">
          <mxGeometry relative="1" as="geometry" />
        </mxCell>
        <mxCell id="xy5MojFmsQYjVZAAaJ2E-12" value="" style="edgeStyle=orthogonalEdgeStyle;rounded=0;orthogonalLoop=1;jettySize=auto;html=1;labelBackgroundColor=#F4F1DE;strokeColor=#E07A5F;fontColor=#393C56;" edge="1" parent="1" source="xy5MojFmsQYjVZAAaJ2E-1" target="xy5MojFmsQYjVZAAaJ2E-11">
          <mxGeometry relative="1" as="geometry" />
        </mxCell>
        <mxCell id="xy5MojFmsQYjVZAAaJ2E-1" value="isExist" style="rhombus;whiteSpace=wrap;html=1;fillColor=#F2CC8F;strokeColor=#E07A5F;fontColor=#393C56;" vertex="1" parent="1">
          <mxGeometry x="340" y="180" width="80" height="80" as="geometry" />
        </mxCell>
        <mxCell id="xy5MojFmsQYjVZAAaJ2E-33" style="edgeStyle=orthogonalEdgeStyle;rounded=0;orthogonalLoop=1;jettySize=auto;html=1;exitX=0.5;exitY=1;exitDx=0;exitDy=0;entryX=0.5;entryY=0;entryDx=0;entryDy=0;dashed=1;labelBackgroundColor=#F4F1DE;strokeColor=#E07A5F;fontColor=#393C56;" edge="1" parent="1" source="xy5MojFmsQYjVZAAaJ2E-2" target="xy5MojFmsQYjVZAAaJ2E-31">
          <mxGeometry relative="1" as="geometry" />
        </mxCell>
        <mxCell id="xy5MojFmsQYjVZAAaJ2E-2" value="qrcode record&lt;br&gt;requestCount+1" style="whiteSpace=wrap;html=1;fillColor=#F2CC8F;strokeColor=#E07A5F;fontColor=#393C56;" vertex="1" parent="1">
          <mxGeometry x="120" y="190" width="120" height="60" as="geometry" />
        </mxCell>
        <mxCell id="xy5MojFmsQYjVZAAaJ2E-32" value="" style="edgeStyle=orthogonalEdgeStyle;rounded=0;orthogonalLoop=1;jettySize=auto;html=1;dashed=1;labelBackgroundColor=#F4F1DE;strokeColor=#E07A5F;fontColor=#393C56;" edge="1" parent="1" source="xy5MojFmsQYjVZAAaJ2E-4" target="xy5MojFmsQYjVZAAaJ2E-31">
          <mxGeometry relative="1" as="geometry" />
        </mxCell>
        <mxCell id="xy5MojFmsQYjVZAAaJ2E-35" value="asyc" style="edgeLabel;html=1;align=center;verticalAlign=middle;resizable=0;points=[];labelBackgroundColor=#F4F1DE;fontColor=#393C56;" vertex="1" connectable="0" parent="xy5MojFmsQYjVZAAaJ2E-32">
          <mxGeometry x="0.4182" relative="1" as="geometry">
            <mxPoint as="offset" />
          </mxGeometry>
        </mxCell>
        <mxCell id="xy5MojFmsQYjVZAAaJ2E-4" value="qrcode record&lt;br&gt;create&amp;nbsp;" style="whiteSpace=wrap;html=1;fillColor=#F2CC8F;strokeColor=#E07A5F;fontColor=#393C56;" vertex="1" parent="1">
          <mxGeometry x="510" y="190" width="120" height="60" as="geometry" />
        </mxCell>
        <mxCell id="xy5MojFmsQYjVZAAaJ2E-10" style="edgeStyle=orthogonalEdgeStyle;rounded=0;orthogonalLoop=1;jettySize=auto;html=1;exitX=0.5;exitY=1;exitDx=0;exitDy=0;labelBackgroundColor=#F4F1DE;strokeColor=#E07A5F;fontColor=#393C56;" edge="1" parent="1" source="xy5MojFmsQYjVZAAaJ2E-8" target="xy5MojFmsQYjVZAAaJ2E-1">
          <mxGeometry relative="1" as="geometry" />
        </mxCell>
        <mxCell id="xy5MojFmsQYjVZAAaJ2E-8" value="generate&lt;br&gt;qrcode" style="ellipse;whiteSpace=wrap;html=1;fillColor=#F2CC8F;strokeColor=#E07A5F;fontColor=#393C56;" vertex="1" parent="1">
          <mxGeometry x="320" y="30" width="120" height="60" as="geometry" />
        </mxCell>
        <mxCell id="xy5MojFmsQYjVZAAaJ2E-14" value="Y" style="edgeStyle=orthogonalEdgeStyle;rounded=0;orthogonalLoop=1;jettySize=auto;html=1;labelBackgroundColor=#F4F1DE;strokeColor=#E07A5F;fontColor=#393C56;" edge="1" parent="1" source="xy5MojFmsQYjVZAAaJ2E-11">
          <mxGeometry relative="1" as="geometry">
            <mxPoint x="240" y="380" as="targetPoint" />
          </mxGeometry>
        </mxCell>
        <mxCell id="xy5MojFmsQYjVZAAaJ2E-16" value="" style="edgeStyle=orthogonalEdgeStyle;rounded=0;orthogonalLoop=1;jettySize=auto;html=1;labelBackgroundColor=#F4F1DE;strokeColor=#E07A5F;fontColor=#393C56;" edge="1" parent="1" source="xy5MojFmsQYjVZAAaJ2E-11">
          <mxGeometry relative="1" as="geometry">
            <mxPoint x="380" y="490" as="targetPoint" />
          </mxGeometry>
        </mxCell>
        <mxCell id="xy5MojFmsQYjVZAAaJ2E-19" value="N" style="edgeLabel;html=1;align=center;verticalAlign=middle;resizable=0;points=[];labelBackgroundColor=#F4F1DE;fontColor=#393C56;" vertex="1" connectable="0" parent="xy5MojFmsQYjVZAAaJ2E-16">
          <mxGeometry x="-0.1333" relative="1" as="geometry">
            <mxPoint as="offset" />
          </mxGeometry>
        </mxCell>
        <mxCell id="xy5MojFmsQYjVZAAaJ2E-11" value="isReedemed" style="rhombus;whiteSpace=wrap;html=1;fillColor=#F2CC8F;strokeColor=#E07A5F;fontColor=#393C56;" vertex="1" parent="1">
          <mxGeometry x="340" y="340" width="80" height="80" as="geometry" />
        </mxCell>
        <mxCell id="xy5MojFmsQYjVZAAaJ2E-18" value="end" style="ellipse;whiteSpace=wrap;html=1;fillColor=#F2CC8F;strokeColor=#E07A5F;fontColor=#393C56;" vertex="1" parent="1">
          <mxGeometry x="120" y="350" width="120" height="60" as="geometry" />
        </mxCell>
        <mxCell id="xy5MojFmsQYjVZAAaJ2E-23" value="" style="edgeStyle=orthogonalEdgeStyle;rounded=0;orthogonalLoop=1;jettySize=auto;html=1;labelBackgroundColor=#F4F1DE;strokeColor=#E07A5F;fontColor=#393C56;" edge="1" parent="1" source="xy5MojFmsQYjVZAAaJ2E-20" target="xy5MojFmsQYjVZAAaJ2E-22">
          <mxGeometry relative="1" as="geometry" />
        </mxCell>
        <mxCell id="xy5MojFmsQYjVZAAaJ2E-24" value="Y" style="edgeLabel;html=1;align=center;verticalAlign=middle;resizable=0;points=[];labelBackgroundColor=#F4F1DE;fontColor=#393C56;" vertex="1" connectable="0" parent="xy5MojFmsQYjVZAAaJ2E-23">
          <mxGeometry x="-0.3333" y="-3" relative="1" as="geometry">
            <mxPoint as="offset" />
          </mxGeometry>
        </mxCell>
        <mxCell id="xy5MojFmsQYjVZAAaJ2E-29" style="edgeStyle=orthogonalEdgeStyle;rounded=0;orthogonalLoop=1;jettySize=auto;html=1;exitX=0;exitY=0.5;exitDx=0;exitDy=0;entryX=0;entryY=0.5;entryDx=0;entryDy=0;labelBackgroundColor=#F4F1DE;strokeColor=#E07A5F;fontColor=#393C56;" edge="1" parent="1" source="xy5MojFmsQYjVZAAaJ2E-20" target="xy5MojFmsQYjVZAAaJ2E-25">
          <mxGeometry relative="1" as="geometry">
            <mxPoint x="220" y="800" as="targetPoint" />
            <Array as="points">
              <mxPoint x="200" y="530" />
              <mxPoint x="200" y="780" />
            </Array>
          </mxGeometry>
        </mxCell>
        <mxCell id="xy5MojFmsQYjVZAAaJ2E-30" value="N" style="edgeLabel;html=1;align=center;verticalAlign=middle;resizable=0;points=[];labelBackgroundColor=#F4F1DE;fontColor=#393C56;" vertex="1" connectable="0" parent="xy5MojFmsQYjVZAAaJ2E-29">
          <mxGeometry x="-0.0353" relative="1" as="geometry">
            <mxPoint as="offset" />
          </mxGeometry>
        </mxCell>
        <mxCell id="xy5MojFmsQYjVZAAaJ2E-20" value="inCache" style="rhombus;whiteSpace=wrap;html=1;fillColor=#F2CC8F;strokeColor=#E07A5F;fontColor=#393C56;" vertex="1" parent="1">
          <mxGeometry x="340" y="490" width="80" height="80" as="geometry" />
        </mxCell>
        <mxCell id="xy5MojFmsQYjVZAAaJ2E-26" value="" style="edgeStyle=orthogonalEdgeStyle;rounded=0;orthogonalLoop=1;jettySize=auto;html=1;labelBackgroundColor=#F4F1DE;strokeColor=#E07A5F;fontColor=#393C56;" edge="1" parent="1" source="xy5MojFmsQYjVZAAaJ2E-22" target="xy5MojFmsQYjVZAAaJ2E-25">
          <mxGeometry relative="1" as="geometry" />
        </mxCell>
        <mxCell id="xy5MojFmsQYjVZAAaJ2E-53" style="edgeStyle=orthogonalEdgeStyle;rounded=0;orthogonalLoop=1;jettySize=auto;html=1;exitX=1;exitY=0.5;exitDx=0;exitDy=0;dashed=1;labelBackgroundColor=#F4F1DE;strokeColor=#E07A5F;fontColor=#393C56;" edge="1" parent="1" source="xy5MojFmsQYjVZAAaJ2E-22" target="xy5MojFmsQYjVZAAaJ2E-52">
          <mxGeometry relative="1" as="geometry" />
        </mxCell>
        <mxCell id="xy5MojFmsQYjVZAAaJ2E-22" value="generate&amp;amp;set&lt;br&gt;qrcode into cache" style="whiteSpace=wrap;html=1;fillColor=#F2CC8F;strokeColor=#E07A5F;fontColor=#393C56;" vertex="1" parent="1">
          <mxGeometry x="320" y="630" width="120" height="60" as="geometry" />
        </mxCell>
        <mxCell id="xy5MojFmsQYjVZAAaJ2E-28" value="" style="edgeStyle=orthogonalEdgeStyle;rounded=0;orthogonalLoop=1;jettySize=auto;html=1;labelBackgroundColor=#F4F1DE;strokeColor=#E07A5F;fontColor=#393C56;" edge="1" parent="1" source="xy5MojFmsQYjVZAAaJ2E-25" target="xy5MojFmsQYjVZAAaJ2E-27">
          <mxGeometry relative="1" as="geometry" />
        </mxCell>
        <mxCell id="xy5MojFmsQYjVZAAaJ2E-25" value="update qrcode&lt;br&gt;record&amp;nbsp;" style="whiteSpace=wrap;html=1;fillColor=#F2CC8F;strokeColor=#E07A5F;fontColor=#393C56;" vertex="1" parent="1">
          <mxGeometry x="320" y="750" width="120" height="60" as="geometry" />
        </mxCell>
        <mxCell id="xy5MojFmsQYjVZAAaJ2E-27" value="end" style="ellipse;whiteSpace=wrap;html=1;fillColor=#F2CC8F;strokeColor=#E07A5F;fontColor=#393C56;" vertex="1" parent="1">
          <mxGeometry x="320" y="890" width="120" height="60" as="geometry" />
        </mxCell>
        <mxCell id="xy5MojFmsQYjVZAAaJ2E-31" value="preLoadTms" style="shape=process;whiteSpace=wrap;html=1;backgroundOutline=1;fillColor=#F2CC8F;strokeColor=#E07A5F;fontColor=#393C56;" vertex="1" parent="1">
          <mxGeometry x="510" y="360" width="120" height="60" as="geometry" />
        </mxCell>
        <mxCell id="xy5MojFmsQYjVZAAaJ2E-52" value="&lt;table border=&quot;1&quot; width=&quot;100%&quot; cellpadding=&quot;4&quot; style=&quot;width: 100% ; height: 100% ; border-collapse: collapse&quot;&gt;&lt;tbody&gt;&lt;tr&gt;&lt;th align=&quot;center&quot;&gt;Cache&lt;/th&gt;&lt;/tr&gt;&lt;tr&gt;&lt;td align=&quot;center&quot;&gt;confirmationNum--&amp;gt;uuid&lt;br&gt;ttl:30s&lt;/td&gt;&lt;/tr&gt;&lt;tr&gt;&lt;td align=&quot;center&quot;&gt;uuid--&amp;gt;confirmationNum&lt;br&gt;ttl:60s&lt;/td&gt;&lt;/tr&gt;&lt;/tbody&gt;&lt;/table&gt;" style="text;html=1;strokeColor=none;fillColor=none;overflow=fill;fontColor=#393C56;" vertex="1" parent="1">
          <mxGeometry x="570" y="590" width="160" height="140" as="geometry" />
        </mxCell>
      </root>
    </mxGraphModel>
  </diagram>
</mxfile>
